<?xml version="1.0" standalone="no"?>
<!DOCTYPE svg PUBLIC "-//W3C//DTD SVG 20010904//EN"
 "http://www.w3.org/TR/2001/REC-SVG-20010904/DTD/svg10.dtd">
<svg version="1.0" xmlns="http://www.w3.org/2000/svg"
 width="495.000000pt" height="504.000000pt" viewBox="0 0 495.000000 504.000000"
 preserveAspectRatio="xMidYMid meet">

<g transform="translate(0.000000,504.000000) scale(0.100000,-0.100000)"
fill="#000000" stroke="none">
<path d="M579 4815 c-40 -21 -84 -99 -115 -200 -27 -86 -28 -99 -29 -305 0
-199 2 -225 28 -349 16 -74 44 -186 63 -249 38 -132 36 -166 -16 -231 -16 -20
-43 -78 -60 -130 -30 -90 -32 -101 -28 -220 l3 -126 56 -115 c57 -114 112
-185 169 -215 44 -23 139 -35 272 -35 70 0 128 -4 128 -8 0 -4 -16 -37 -35
-73 -67 -127 -116 -291 -182 -609 -36 -174 -38 -389 -4 -533 15 -63 21 -112
17 -135 -32 -192 7 -369 111 -500 20 -26 41 -52 45 -58 6 -8 -12 -19 -53 -34
-108 -41 -166 -127 -157 -233 14 -165 163 -238 385 -188 119 27 155 27 179 0
31 -34 70 -49 128 -49 58 0 145 27 176 55 9 8 41 18 69 22 43 5 55 2 74 -14
52 -46 271 -59 316 -19 20 18 28 19 144 8 233 -23 609 -13 729 19 98 26 188
148 188 255 0 29 3 55 8 57 4 3 43 -2 87 -10 118 -21 269 -13 370 22 86 29
248 107 332 161 73 47 212 185 276 276 136 192 240 436 289 683 40 195 26 536
-34 895 -25 148 -29 397 -9 555 17 126 17 316 1 375 -14 53 -47 102 -65 98 -7
-2 -32 -28 -54 -58 -76 -102 -166 -168 -379 -280 -387 -202 -433 -232 -576
-374 -211 -210 -355 -459 -432 -748 -16 -60 -32 -108 -36 -108 -4 0 -26 26
-50 58 -62 84 -212 228 -273 263 -42 24 -63 46 -104 108 -28 43 -53 85 -56 93
-8 20 32 28 134 28 95 0 194 16 246 39 57 26 142 106 170 160 30 60 52 139 60
218 13 130 -32 327 -95 418 -42 61 -45 102 -16 203 25 84 66 264 88 387 6 33
11 146 11 250 0 173 -2 199 -26 288 -31 117 -60 173 -106 204 -44 30 -89 29
-181 -2 -161 -55 -314 -154 -596 -386 l-80 -67 -45 9 c-118 24 -543 20 -611
-6 -7 -3 -26 7 -43 23 -16 15 -61 54 -100 87 -38 33 -72 62 -75 65 -7 7 -79
62 -106 80 -169 116 -261 166 -368 199 -79 24 -120 26 -157 6z m201 -161 c158
-75 317 -185 436 -303 l52 -50 -42 -25 c-70 -41 -85 -41 -146 -1 -151 100
-296 143 -337 102 -25 -24 -33 -148 -22 -319 l11 -157 -29 -43 c-15 -24 -33
-52 -39 -63 -6 -11 -15 -20 -19 -20 -26 0 -82 281 -91 455 -9 192 21 386 72
458 19 28 26 26 154 -34z m2133 -29 c57 -161 58 -423 2 -679 -36 -167 -50
-194 -76 -143 -7 12 -25 39 -42 60 l-29 38 12 167 c11 168 5 265 -20 311 -21
41 -107 23 -263 -55 -40 -20 -85 -45 -100 -56 -33 -24 -65 -20 -122 13 l-38
23 54 49 c121 110 260 207 407 286 66 35 155 71 172 68 9 -1 26 -34 43 -82z
m-836 -404 c423 -128 693 -407 774 -800 20 -96 36 -126 76 -142 29 -11 36 -50
31 -185 -3 -97 -6 -115 -33 -169 -45 -88 -89 -130 -153 -144 -30 -6 -150 -11
-279 -11 -222 0 -227 0 -268 -25 -49 -28 -67 -61 -90 -163 -12 -52 -23 -77
-38 -87 -62 -39 -201 -25 -293 31 -31 19 -62 34 -68 34 -6 0 -31 -14 -55 -30
-54 -37 -109 -53 -181 -54 -107 -2 -124 13 -155 134 -21 82 -38 110 -83 140
-35 25 -37 25 -281 25 -208 0 -251 3 -281 17 -103 48 -168 205 -158 381 5 75
6 78 45 115 26 24 45 51 51 77 6 22 20 78 31 125 26 104 93 244 159 330 124
164 337 314 542 383 66 22 99 30 220 51 14 3 106 3 205 1 167 -3 187 -5 282
-34z m2308 -841 c4 -6 -1 -91 -10 -188 -23 -236 -16 -426 25 -667 44 -259 47
-328 20 -455 -19 -93 -60 -210 -74 -210 -6 0 -32 92 -47 167 -21 114 -45 103
-113 -53 -49 -114 -66 -128 -66 -55 0 112 -43 321 -66 321 -3 0 -30 -22 -59
-48 -53 -49 -181 -132 -203 -132 -7 0 -16 10 -21 23 -19 49 -52 274 -59 394
-8 146 -13 153 -78 103 -99 -78 -124 -99 -196 -169 -43 -41 -80 -72 -83 -69
-12 12 -23 158 -16 219 8 80 43 139 148 250 139 147 253 226 552 383 194 102
214 114 280 163 47 36 56 39 66 23z m-2068 -792 c39 -41 73 -109 73 -144 0
-33 -38 -101 -75 -133 -65 -55 -94 -65 -202 -69 -118 -5 -129 0 -135 58 -4 43
4 50 50 50 15 0 51 7 81 15 76 20 117 62 131 134 15 74 30 121 39 121 4 0 21
-15 38 -32z m-1073 -71 c37 -122 78 -154 211 -166 l70 -6 3 -40 c5 -54 -13
-65 -108 -65 -105 0 -168 21 -223 73 -51 48 -61 75 -55 150 4 49 48 137 69
137 4 0 19 -37 33 -83z m552 -132 c34 -13 43 -22 46 -46 3 -16 2 -31 0 -34
-10 -10 -181 -5 -187 6 -14 22 6 59 43 78 40 21 39 21 98 -4z m-629 -177 c21
-18 48 -45 61 -60 34 -40 115 -75 220 -95 l93 -18 -3 -60 c-4 -71 -6 -73 -145
-74 -131 -1 -210 25 -280 95 -74 74 -91 152 -47 219 22 34 55 32 101 -7z m682
-41 c1 -31 -3 -39 -25 -47 -29 -11 -82 -13 -136 -4 l-38 7 0 53 0 53 93 3
c103 3 105 2 106 -65z m593 56 c47 -53 28 -144 -43 -215 -74 -74 -142 -101
-264 -106 -114 -5 -168 6 -173 32 -2 10 -1 38 3 62 6 42 7 43 53 49 69 10 162
34 196 52 16 8 60 44 97 79 72 68 103 79 131 47z m241 -33 c70 -77 90 -127 85
-209 -3 -54 -11 -84 -41 -145 -21 -42 -44 -76 -52 -76 -7 0 -24 19 -38 43 -23
39 -25 48 -15 88 12 52 14 246 4 307 -5 26 -4 42 2 42 6 0 30 -23 55 -50z
m-829 -156 c3 -9 6 -31 6 -49 0 -32 -1 -33 -50 -40 -28 -4 -77 -4 -110 0 l-60
7 0 42 c0 24 3 46 7 49 3 4 50 7 104 7 79 0 98 -3 103 -16z m1119 -223 c43
-90 46 -154 14 -225 -28 -62 -123 -168 -145 -164 -7 2 -27 34 -43 71 l-30 68
27 36 c50 66 85 152 97 241 l11 84 19 -23 c11 -13 34 -53 50 -88z m-1184 73
c60 -7 61 -7 61 -38 0 -48 -15 -56 -100 -56 -87 0 -100 8 -100 62 0 37 1 38
39 38 21 0 66 -3 100 -6z m637 -12 c24 -17 44 -59 44 -93 0 -65 -96 -169 -200
-218 -46 -22 -69 -26 -145 -26 -92 1 -154 15 -175 40 -8 10 -10 33 -6 69 l7
54 102 4 c123 5 175 27 273 119 62 58 78 66 100 51z m-1251 -56 c96 -85 151
-108 272 -114 114 -5 102 5 119 -95 6 -36 5 -38 -32 -54 -28 -12 -68 -16 -144
-16 -130 -1 -192 21 -263 90 -60 58 -87 109 -87 163 0 97 45 106 135 26z m653
-115 c14 -9 9 -87 -10 -148 -9 -32 -11 -33 -68 -33 l-58 0 -10 48 c-18 80 -23
122 -17 132 7 12 145 13 163 1z m1314 -257 c41 -88 43 -171 6 -235 -31 -52
-141 -139 -176 -139 -5 0 -13 26 -16 58 -4 31 -9 71 -12 88 -5 28 -1 34 29 53
48 29 91 97 112 176 10 36 20 65 22 65 2 0 18 -30 35 -66z m-1701 -43 c15 -18
17 -42 17 -144 -1 -117 1 -131 56 -342 32 -122 56 -236 54 -255 -3 -33 -5 -35
-45 -38 -41 -3 -42 -3 -48 35 -21 116 -86 328 -137 438 -30 67 -33 42 -14
-122 15 -136 30 -190 78 -291 16 -35 28 -65 26 -66 -22 -17 -101 -46 -108 -40
-12 13 -54 153 -85 284 -49 205 -66 264 -100 345 -51 121 -52 129 -17 165 40
40 88 41 127 3 26 -27 28 -27 39 -9 37 62 47 68 95 63 30 -3 51 -12 62 -26z
m680 19 c10 -6 26 -24 34 -41 l16 -30 36 31 c31 27 42 31 72 26 48 -7 74 -40
68 -86 -2 -19 -21 -73 -42 -118 -22 -50 -45 -125 -56 -185 -32 -166 -80 -378
-91 -403 -13 -28 -20 -29 -80 -8 l-46 15 29 70 c16 39 36 105 45 147 19 93 31
312 17 297 -33 -33 -116 -321 -128 -442 l-7 -71 -37 5 c-65 9 -64 7 -57 76 7
62 22 140 70 362 18 84 26 150 26 222 0 98 1 102 26 122 29 23 74 27 105 11z
m659 -95 c74 -38 77 -148 8 -239 -15 -19 -16 -18 -57 14 -36 30 -41 38 -41 75
0 26 -10 61 -25 90 -29 53 -29 50 5 64 37 14 77 13 110 -4z m-195 -44 c17 -10
39 -37 49 -60 24 -52 12 -85 -33 -94 -17 -4 -51 -25 -75 -48 l-45 -41 -16 39
c-28 65 -30 107 -6 157 14 29 32 48 49 55 38 14 43 13 77 -8z m126 -216 c9 -9
29 -47 44 -83 28 -72 72 -142 147 -236 47 -59 51 -76 21 -76 -8 0 -42 -12 -74
-26 l-59 -27 -37 25 c-21 14 -53 52 -73 84 -19 33 -55 85 -80 117 -90 116 -98
142 -58 192 42 54 126 68 169 30z m518 -165 c1 -38 -33 -106 -61 -124 -12 -7
-24 -6 -43 4 -30 16 -105 106 -105 126 0 7 12 20 28 28 15 8 42 33 61 56 l34
41 43 -48 c33 -37 43 -56 43 -83z m173 8 c12 -17 3 -167 -10 -180 -12 -12
-162 -1 -162 12 0 4 9 27 20 51 11 24 20 66 20 93 l0 49 61 -6 c35 -3 66 -11
71 -19z m-363 -276 c5 -10 13 -41 17 -69 10 -76 -28 -136 -94 -149 l-32 -7 16
38 c20 50 11 96 -27 140 l-31 35 24 9 c67 25 114 26 127 3z m-1969 -71 c0 -24
9 -51 24 -74 l25 -36 -50 -31 c-76 -49 -133 -25 -74 30 34 32 31 46 -15 70
-22 11 -40 23 -40 26 0 7 102 54 118 54 7 0 12 -14 12 -39z m1344 16 c10 -14
16 -53 18 -107 l3 -85 -64 -3 c-76 -4 -97 9 -52 33 43 22 35 41 -16 37 -46 -4
-59 8 -42 39 9 19 17 21 55 15 54 -7 56 5 9 46 -19 17 -32 35 -29 40 3 4 27 8
54 8 40 0 52 -4 64 -23z m-1206 -39 c11 -29 25 -65 31 -80 10 -26 8 -29 -25
-43 -20 -8 -45 -15 -55 -15 -16 0 -17 3 -8 24 9 18 7 31 -10 64 -26 51 -26 57
-1 82 32 32 47 24 68 -32z m855 26 c48 -16 51 -20 47 -64 -2 -27 -49 -120 -60
-120 -4 0 -5 22 -2 49 2 28 0 51 -6 55 -6 3 -27 -14 -48 -39 -20 -25 -41 -42
-45 -38 -4 4 -9 31 -11 58 l-3 50 -37 -38 -38 -38 0 41 c0 22 7 57 15 77 l15
36 63 -7 c34 -4 83 -14 110 -22z m707 12 c94 -1 122 -13 141 -58 14 -34 0 -74
-38 -110 -23 -22 -33 -23 -187 -26 l-163 -4 -22 28 c-41 52 -31 61 63 56 86
-5 222 5 212 15 -3 3 -69 16 -147 29 -78 13 -144 25 -146 27 -8 9 11 39 31 48
12 5 55 6 96 2 41 -4 113 -7 160 -7z m-1191 -6 c10 -5 23 -22 29 -37 14 -38
25 -103 16 -103 -4 0 -24 16 -45 35 -48 43 -64 45 -55 8 24 -107 18 -117 -34
-53 -44 54 -60 52 -60 -6 0 -30 -4 -43 -11 -38 -16 10 -68 124 -63 138 16 42
175 82 223 56z"/>
<path d="M1093 3600 c-130 -27 -221 -134 -231 -271 -11 -161 99 -293 262 -315
72 -10 174 26 231 81 65 64 89 122 89 215 0 66 -4 82 -33 137 -18 33 -50 75
-72 92 -66 54 -164 78 -246 61z"/>
<path d="M2290 3600 c-94 -20 -166 -76 -210 -163 -25 -50 -30 -72 -30 -133 0
-61 5 -81 31 -130 54 -104 139 -157 254 -158 219 -3 354 196 275 407 -46 122
-194 204 -320 177z"/>
<path d="M1683 3098 c-45 -47 -103 -147 -103 -178 0 -31 31 -67 68 -81 71 -27
230 -1 252 42 26 47 -3 121 -77 200 -57 62 -93 66 -140 17z"/>
</g>
</svg>
